<svg xmlns="http://www.w3.org/2000/svg" width="900" height="560" viewBox="0 0 900 560" role="img" aria-labelledby="title desc"><title id="title">Babesia spp. — Intraerythrocytic forms</title><desc id="desc">Intraerythrocytic forms. Erythrocyte context; Occasional Maltese-cross tetrad (left); Paired forms (right). A tetrad is not present in every infection; shapes vary by species and stage. Schematic, not to scale; not a microscopy image.</desc><rect x="0" y="0" width="900" height="560" fill="#F4F7F2" stroke="none" stroke-width="1"/><text x="32" y="43" font-family="Arial, sans-serif" font-size="16" fill="#58746B">MORPHOLOGY STUDY</text><text x="32" y="83" font-family="Arial, sans-serif" font-size="28" fill="#203C36">Babesia spp.</text><text x="32" y="115" font-family="Arial, sans-serif" font-size="18" fill="#58746B">Intraerythrocytic forms</text><polyline points="32.00,135.00 868.00,135.00" fill="none" stroke="#D3DED5" stroke-width="2" stroke-linejoin="round" stroke-linecap="round"/><ellipse cx="160" cy="285" rx="84" ry="84" fill="#FAE1E3" stroke="#CE949D" stroke-width="3"/><ellipse cx="355" cy="285" rx="69" ry="69" fill="#FAE1E3" stroke="#CE949D" stroke-width="3"/><polygon points="163.00,285.00 195.76,294.51 203.00,285.00 195.76,275.49" fill="#C3B3D6" stroke="#7754A0" stroke-width="3" stroke-linejoin="round" stroke-linecap="round"/><polygon points="160.00,288.00 150.49,320.76 160.00,328.00 169.51,320.76" fill="#C3B3D6" stroke="#7754A0" stroke-width="3" stroke-linejoin="round" stroke-linecap="round"/><polygon points="157.00,285.00 124.24,275.49 117.00,285.00 124.24,294.51" fill="#C3B3D6" stroke="#7754A0" stroke-width="3" stroke-linejoin="round" stroke-linecap="round"/><polygon points="160.00,282.00 169.51,249.24 160.00,242.00 150.49,249.24" fill="#C3B3D6" stroke="#7754A0" stroke-width="3" stroke-linejoin="round" stroke-linecap="round"/><ellipse cx="337" cy="279" rx="12" ry="19" fill="none" stroke="#426FA5" stroke-width="4"/><ellipse cx="368" cy="286" rx="12" ry="19" fill="none" stroke="#426FA5" stroke-width="4"/><ellipse cx="480" cy="191" rx="15" ry="15" fill="#DCE9F4" stroke="none" stroke-width="1"/><text x="475" y="197" font-family="Arial, sans-serif" font-size="16" fill="#426FA5">1</text><text x="507" y="198" font-family="Arial, sans-serif" font-size="19" fill="#203C36">Erythrocyte context</text><ellipse cx="480" cy="276" rx="15" ry="15" fill="#DCE9F4" stroke="none" stroke-width="1"/><text x="475" y="282" font-family="Arial, sans-serif" font-size="16" fill="#426FA5">2</text><text x="507" y="283" font-family="Arial, sans-serif" font-size="19" fill="#203C36">Occasional Maltese-cross tetrad</text><text x="507" y="308" font-family="Arial, sans-serif" font-size="19" fill="#203C36">(left)</text><ellipse cx="480" cy="361" rx="15" ry="15" fill="#DCE9F4" stroke="none" stroke-width="1"/><text x="475" y="367" font-family="Arial, sans-serif" font-size="16" fill="#426FA5">3</text><text x="507" y="368" font-family="Arial, sans-serif" font-size="19" fill="#203C36">Paired forms (right)</text><text x="32" y="475" font-family="Arial, sans-serif" font-size="16" fill="#58746B">A tetrad is not present in every infection; shapes vary by species and stage.</text><polyline points="32.00,518.00 868.00,518.00" fill="none" stroke="#D3DED5" stroke-width="2" stroke-linejoin="round" stroke-linecap="round"/><text x="32" y="545" font-family="Arial, sans-serif" font-size="15" fill="#58746B">ORIGINAL SCHEMATIC  /  NOT TO SCALE  /  NOT A MICROSCOPY IMAGE</text></svg>
